# xmcd CD database file
#
# Track frame offsets:
#	150
#	32401
#	56732
#	88167
#	115599
#	139868
#
# Disc length: 2194 seconds
#
# Revision: 6
# Processed by: cddbd v1.5PL3 Copyright (c) Steve Scherf et al.
# Submitted via: CDex 1.50beta8
#
DISCID=49089006
DTITLE=Jackie McLean - Demon's Dance
DYEAR=1967
DGENRE=Jazz
TTITLE0=Demon's Dance
TTITLE1=Toyland
TTITLE2=Boo Ann's Grind
TTITLE3=Sweet Love of Mind
TTITLE4=Floogeh
TTITLE5=Message From Trane
EXTD=Blue Note Limited Edition Series (March 1997]\nw/ Woody Shaw on trumpet\n
EXTT0=
EXTT1=
EXTT2=
EXTT3=
EXTT4=
EXTT5=
PLAYORDER=
